USFL
nRows=274
nColumns=2
inDegrees=yes
endheader
time	tib_ant_r	
2.52823	 57.121358	
2.56149	 57.126917	
2.59476	 57.121705	
2.62802	 57.140556	
2.66129	 57.127515	
2.69456	 57.145183	
2.72782	 57.141054	
2.76109	 57.145774	
2.79435	 57.142239	
2.82762	 57.133356	
2.86089	 57.150978	
2.89415	 57.163811	
2.92742	 57.167007	
2.96069	 57.184371	
2.99395	 57.187671	
3.02722	 57.181536	
3.06048	 57.199592	
3.09375	 57.184179	
3.12702	 57.189085	
3.16028	 57.186694	
3.19355	 57.198620	
3.22681	 57.180145	
3.26008	 57.169719	
3.29335	 57.163379	
3.32661	 57.171507	
3.35988	 57.166593	
3.39315	 57.141827	
3.42641	 57.139265	
3.45968	 57.137361	
3.49294	 57.136344	
3.52621	 57.134123	
3.55948	 57.126912	
3.59274	 57.150048	
3.62601	 57.142733	
3.65927	 57.140150	
3.69254	 57.143790	
3.72581	 57.150524	
3.75907	 57.147431	
3.79234	 57.147159	
3.8256	 57.138369	
3.85887	 57.130441	
3.89214	 57.146490	
3.9254	 57.147890	
3.95867	 57.163374	
3.99194	 57.163093	
4.0252	 57.148323	
4.05847	 57.124636	
4.09173	 57.141837	
4.125	 57.149244	
4.15827	 57.144882	
4.19153	 57.142864	
4.2248	 57.151884	
4.25806	 57.147240	
4.29133	 57.152059	
4.3246	 57.165774	
4.35786	 57.175395	
4.39113	 57.182499	
4.4244	 57.178216	
4.45766	 57.162472	
4.49093	 57.156884	
4.52419	 57.155844	
4.55746	 57.155521	
4.59073	 57.175096	
4.62399	 57.177072	
4.65726	 57.163308	
4.69052	 57.318246	
4.72379	 57.085223	
4.75706	 57.057424	
4.79032	 57.030913	
4.82359	 56.750246	
4.85685	 56.737570	
4.89012	 56.909366	
4.92339	 56.294808	
4.95665	 55.927695	
4.98992	 56.007029	
5.02319	 55.572913	
5.05645	 55.234929	
5.08972	 54.983413	
5.12298	 54.713245	
5.15625	 54.598444	
5.18952	 54.313993	
5.22278	 54.043631	
5.25605	 53.984788	
5.28931	 53.704397	
5.32258	 53.563103	
5.35585	 53.633633	
5.38911	 53.260735	
5.42238	 52.935876	
5.45565	 52.612220	
5.48891	 52.293756	
5.52218	 52.356727	
5.55544	 52.012228	
5.58871	 51.729730	
5.62198	 51.707649	
5.65524	 51.419431	
5.68851	 51.146398	
5.72177	 51.081294	
5.75504	 50.832870	
5.78831	 50.513425	
5.82157	 50.204609	
5.85484	 49.900863	
5.8881	 49.889020	
5.92137	 49.617292	
5.95464	 49.352078	
5.9879	 49.247681	
6.02117	 49.098460	
6.05444	 48.822341	
6.0877	 48.701399	
6.12097	 48.363661	
6.15423	 48.257519	
6.1875	 48.075962	
6.22077	 47.817310	
6.25403	 47.806788	
6.2873	 47.672916	
6.32056	 43.280966	
6.35383	 43.275029	
6.3871	 43.244894	
6.42036	 43.186736	
6.45363	 43.157017	
6.4869	 42.902060	
6.52016	 42.862781	
6.55343	 42.819335	
6.58669	 42.736003	
6.61996	 42.707652	
6.65323	 42.637504	
6.68649	 42.570027	
6.71976	 42.526841	
6.75302	 42.449518	
6.78629	 42.404064	
6.81956	 42.377532	
6.85282	 42.198684	
6.88609	 42.161909	
6.91935	 42.116449	
6.95262	 42.093164	
6.98589	 42.083018	
7.01915	 42.046548	
7.05242	 41.997322	
7.08569	 41.972408	
7.11895	 41.943157	
7.15222	 41.961931	
7.18548	 41.963170	
7.21875	 41.921390	
7.25202	 41.894573	
7.28528	 41.864052	
7.31855	 41.844061	
7.35181	 41.845893	
7.38508	 41.839987	
7.41835	 41.820846	
7.45161	 41.822486	
7.48488	 41.798397	
7.51815	 41.786337	
7.55141	 41.779121	
7.58468	 41.777738	
7.61794	 41.783817	
7.65121	 41.792491	
7.68448	 41.815002	
7.71774	 41.822252	
7.75101	 41.891958	
7.78427	 41.949758	
7.81754	 41.976482	
7.85081	 41.988274	
7.88407	 41.975136	
7.91734	 41.988983	
7.9506	 41.984872	
7.98387	 41.972364	
8.01714	 41.966563	
8.0504	 41.950677	
8.08367	 41.928522	
8.11694	 41.927041	
8.1502	 41.917946	
8.18347	 41.915924	
8.21673	 41.913337	
8.25	 41.919270	
8.28327	 41.901994	
8.31653	 41.858043	
8.3498	 41.832977	
8.38306	 41.840668	
8.41633	 41.867184	
8.4496	 41.888220	
8.48286	 41.878100	
8.51613	 41.884236	
8.5494	 41.885810	
8.58266	 41.926129	
8.61593	 41.947237	
8.64919	 41.954181	
8.68246	 41.945212	
8.71573	 41.953969	
8.74899	 41.974590	
8.78226	 41.986303	
8.81552	 42.003568	
8.84879	 42.013677	
8.88206	 42.023066	
8.91532	 42.023933	
8.94859	 42.035014	
8.98185	 42.004593	
9.01512	 42.024345	
9.04839	 42.022176	
9.08165	 42.022582	
9.11492	 42.011214	
9.14819	 42.022365	
9.18145	 42.019321	
9.21472	 42.054060	
9.24798	 42.102713	
9.28125	 42.135466	
9.31452	 42.196166	
9.34778	 42.297590	
9.38105	 42.322263	
9.41431	 42.314469	
9.44758	 42.303380	
9.48085	 42.288520	
9.51411	 42.269766	
9.54738	 42.288270	
9.58065	 42.282681	
9.61391	 42.253823	
9.64718	 42.251464	
9.68044	 42.254893	
9.71371	 42.310163	
9.74698	 42.352723	
9.78024	 42.573651	
9.81351	 42.550100	
9.84677	 42.504018	
9.88004	 47.866603	
9.91331	 47.502354	
9.94657	 47.437293	
9.97984	 47.146780	
10.0131	 47.223629	
10.0464	 49.705438	
10.0796	 50.016150	
10.1129	 50.134017	
10.1462	 50.109321	
10.1794	 50.093380	
10.2127	 50.261807	
10.246	 50.507313	
10.2792	 50.456398	
10.3125	 50.820507	
10.3458	 60.665631	
10.379	 60.594535	
10.4123	 60.947784	
10.4456	 61.509217	
10.4788	 61.679076	
10.5121	 62.186654	
10.5454	 62.438772	
10.5786	 62.738427	
10.6119	 63.200868	
10.6452	 63.399326	
10.6784	 63.456240	
10.7117	 63.631009	
10.745	 63.635353	
10.7782	 63.759167	
10.8115	 63.589848	
10.8448	 63.559136	
10.878	 64.001340	
10.9113	 64.125994	
10.9446	 64.302472	
10.9778	 64.269776	
11.0111	 64.219254	
11.0444	 64.292178	
11.0776	 64.295373	
11.1109	 64.309329	
11.1442	 64.451997	
11.1774	 64.416860	
11.2107	 64.475475	
11.244	 64.537016	
11.2772	 64.640396	
11.3105	 64.564163	
11.3437	 64.587512	
11.377	 64.610877	
11.4103	 64.624360	
11.4435	 64.630202	
11.4768	 64.680355	
11.5101	 64.632568	
11.5433	 64.599444	
11.5766	 64.728259	
11.6099	 64.776131	
